<svg width="22" height="21" viewBox="0 0 22 21" fill="none" xmlns="http://www.w3.org/2000/svg">
<path d="M19.5681 7.77544V3.90375C19.5681 2.7013 19.0223 2.21521 17.6664 2.21521H14.2211C12.8651 2.21521 12.3193 2.7013 12.3193 3.90375V7.76691C12.3193 8.97788 12.8651 9.45545 14.2211 9.45545H17.6664C19.0223 9.46398 19.5681 8.97788 19.5681 7.77544Z" fill="#C4C4C4"/>
<path d="M19.5681 17.3694V13.9241C19.5681 12.5682 19.0223 12.0224 17.6664 12.0224H14.2211C12.8651 12.0224 12.3193 12.5682 12.3193 13.9241V17.3694C12.3193 18.7253 12.8651 19.2711 14.2211 19.2711H17.6664C19.0223 19.2711 19.5681 18.7253 19.5681 17.3694Z" fill="#C4C4C4"/>
<path d="M9.76097 7.77544V3.90375C9.76097 2.7013 9.21518 2.21521 7.85924 2.21521H4.41394C3.058 2.21521 2.51221 2.7013 2.51221 3.90375V7.76691C2.51221 8.97788 3.058 9.45545 4.41394 9.45545H7.85924C9.21518 9.46398 9.76097 8.97788 9.76097 7.77544Z" fill="#C4C4C4"/>
<path d="M9.76097 17.3694V13.9241C9.76097 12.5682 9.21518 12.0224 7.85924 12.0224H4.41394C3.058 12.0224 2.51221 12.5682 2.51221 13.9241V17.3694C2.51221 18.7253 3.058 19.2711 4.41394 19.2711H7.85924C9.21518 19.2711 9.76097 18.7253 9.76097 17.3694Z" fill="#C4C4C4"/>
</svg>
