<svg width="23" height="23" viewBox="0 0 23 23" fill="none" xmlns="http://www.w3.org/2000/svg">
<path d="M12.7414 2.33792L14.4568 5.44255C14.6918 5.8687 15.2873 6.27043 15.7793 6.32131L18.7077 6.66186C20.5828 6.87588 21.0557 8.19114 19.7667 9.58362L17.5708 11.9427C17.2042 12.338 17.0093 13.088 17.151 13.6005L17.8903 16.3502C18.4718 18.5212 17.3237 19.4326 15.3283 18.3805L12.5408 16.9105C12.0332 16.6417 11.2228 16.6882 10.7412 16.9987L8.06138 18.7296C6.14301 19.9668 4.93558 19.1729 5.37288 16.9539L5.93257 14.1457C6.03706 13.6207 5.80322 12.8914 5.41013 12.5349L3.06457 10.3991C1.6882 9.14087 2.07267 7.78441 3.92418 7.38534L6.81517 6.76428C7.30311 6.65545 7.87124 6.20857 8.07319 5.75703L9.57912 2.48893C10.3891 0.724709 11.8154 0.657611 12.7414 2.33792Z" fill="#FFA600"/>
</svg>
