<svg width="22" height="22" viewBox="0 0 22 22" fill="none" xmlns="http://www.w3.org/2000/svg">
<path d="M14.4513 4.39395C14.4513 5.45142 13.59 6.31274 12.5325 6.31274H9.5477C9.01896 6.31274 8.5414 6.09954 8.19175 5.7499C7.84211 5.40025 7.62891 4.92268 7.62891 4.39395C7.62891 3.33648 8.49023 2.47516 9.5477 2.47516H12.5325C13.0612 2.47516 13.5388 2.68836 13.8884 3.038C14.2381 3.38765 14.4513 3.86522 14.4513 4.39395Z" fill="#C4C4C4"/>
<path d="M16.8649 5.05915C16.6687 4.89712 16.447 4.7692 16.2082 4.6754C15.9609 4.58159 15.7136 4.77773 15.6624 5.03357C15.3725 6.49185 14.0847 7.59196 12.5327 7.59196H9.54787C8.69507 7.59196 7.89345 7.25937 7.28796 6.65388C6.84451 6.21043 6.5375 5.64758 6.41811 5.0421C6.36694 4.78626 6.1111 4.58159 5.86379 4.68392C4.87455 5.08474 4.2179 5.9887 4.2179 7.80516V16.1199C4.2179 18.6783 5.7444 19.5311 7.62908 19.5311H14.4514C16.3361 19.5311 17.8626 18.6783 17.8626 16.1199V7.80516C17.8626 6.4151 17.4789 5.5623 16.8649 5.05915ZM7.62908 11.2163H11.0403C11.3899 11.2163 11.6799 11.5063 11.6799 11.8559C11.6799 12.2056 11.3899 12.4955 11.0403 12.4955H7.62908C7.27943 12.4955 6.98948 12.2056 6.98948 11.8559C6.98948 11.5063 7.27943 11.2163 7.62908 11.2163ZM14.4514 15.9067H7.62908C7.27943 15.9067 6.98948 15.6168 6.98948 15.2671C6.98948 14.9175 7.27943 14.6275 7.62908 14.6275H14.4514C14.8011 14.6275 15.091 14.9175 15.091 15.2671C15.091 15.6168 14.8011 15.9067 14.4514 15.9067Z" fill="#C4C4C4"/>
</svg>
