<svg width="22" height="22" viewBox="0 0 22 22" fill="none" xmlns="http://www.w3.org/2000/svg">
<path d="M13.5985 20.0099C13.3682 20.0099 13.155 19.882 13.0441 19.6858C12.9333 19.4897 12.9333 19.2424 13.0527 19.0462L13.9481 17.5538C14.1272 17.2468 14.5195 17.153 14.8265 17.3321C15.1335 17.5112 15.2273 17.9035 15.0482 18.2105L14.818 18.5942C17.1717 18.0399 18.937 15.925 18.937 13.4007C18.937 13.0511 19.2269 12.7611 19.5766 12.7611C19.9262 12.7611 20.2162 13.0511 20.2162 13.4007C20.2076 17.0421 17.2399 20.0099 13.5985 20.0099Z" fill="#C4C4C4"/>
<path d="M2.51216 8.92351C2.16251 8.92351 1.87256 8.63356 1.87256 8.28391C1.87256 4.64247 4.84029 1.67474 8.48173 1.67474C8.71198 1.67474 8.92518 1.80266 9.03604 1.99881C9.14691 2.19495 9.14691 2.44226 9.02752 2.6384L8.13208 4.13932C7.95299 4.4378 7.56071 4.54014 7.2537 4.35252C6.95522 4.17344 6.85289 3.78115 7.0405 3.47414L7.27076 3.09039C4.90851 3.6447 3.15175 5.75964 3.15175 8.28391C3.15175 8.63356 2.8618 8.92351 2.51216 8.92351Z" fill="#C4C4C4"/>
<path d="M9.90599 12.42L7.22821 10.9788C6.94679 10.8253 6.60567 10.8253 6.32425 10.9788L3.64647 12.42C3.45032 12.5223 3.33093 12.7355 3.33093 12.9658C3.33093 13.196 3.45032 13.4092 3.64647 13.5116L6.32425 14.9528C6.46922 15.0296 6.62273 15.0637 6.77623 15.0637C6.92973 15.0637 7.08324 15.0296 7.22821 14.9528L9.90599 13.5116C10.1021 13.4092 10.2215 13.196 10.2215 12.9658C10.2215 12.7355 10.0936 12.5309 9.90599 12.42Z" fill="#C4C4C4"/>
<path d="M5.88075 15.4559L3.39059 14.2109C3.20297 14.117 2.98124 14.1256 2.79363 14.2364C2.62307 14.3473 2.51221 14.5434 2.51221 14.7566V17.1104C2.51221 17.5197 2.73393 17.8864 3.10064 18.0655L5.5908 19.3106C5.67608 19.3447 5.76989 19.3703 5.8637 19.3703C5.97456 19.3703 6.08542 19.3362 6.18776 19.2765C6.36685 19.1656 6.47771 18.9695 6.47771 18.7563V16.4025C6.47771 16.0017 6.24745 15.635 5.88075 15.4559Z" fill="#C4C4C4"/>
<path d="M10.7503 14.2364C10.5712 14.1256 10.3494 14.117 10.1533 14.2109L7.66314 15.4559C7.29643 15.635 7.07471 16.0017 7.07471 16.4111V18.7648C7.07471 18.978 7.18557 19.1741 7.36466 19.285C7.46699 19.3362 7.57786 19.3703 7.68872 19.3703C7.78253 19.3703 7.87634 19.3447 7.96162 19.302L10.4518 18.057C10.8185 17.8779 11.0402 17.5112 11.0402 17.1018V14.7481C11.0402 14.5434 10.9293 14.3473 10.7503 14.2364Z" fill="#C4C4C4"/>
<path d="M18.4339 3.87496L15.7562 2.43373C15.4747 2.28023 15.1336 2.28023 14.8522 2.43373L12.1744 3.87496C11.9783 3.97729 11.8589 4.19049 11.8589 4.42075C11.8589 4.651 11.9783 4.8642 12.1744 4.96654L14.8522 6.40776C14.9972 6.48451 15.1507 6.51862 15.3042 6.51862C15.4577 6.51862 15.6112 6.48451 15.7562 6.40776L18.4339 4.96654C18.6301 4.8642 18.7495 4.651 18.7495 4.42075C18.7495 4.18196 18.6216 3.97729 18.4339 3.87496Z" fill="#C4C4C4"/>
<path d="M14.4087 6.90238L11.9185 5.6573C11.7309 5.56349 11.5092 5.57202 11.3216 5.68288C11.151 5.79374 11.0402 5.98989 11.0402 6.20309V8.5568C11.0402 8.96614 11.2619 9.33285 11.6286 9.51193L14.1188 10.757C14.204 10.7997 14.2978 10.8252 14.3916 10.8252C14.5025 10.8252 14.6134 10.7911 14.7157 10.7314C14.8948 10.6206 15.0057 10.4244 15.0057 10.2112V7.85751C15.0057 7.44817 14.7754 7.08147 14.4087 6.90238Z" fill="#C4C4C4"/>
<path d="M19.2782 5.68288C19.0991 5.57202 18.8774 5.56349 18.6813 5.6573L16.1911 6.90238C15.8244 7.08147 15.6027 7.44817 15.6027 7.85751V10.2112C15.6027 10.4244 15.7135 10.6206 15.8926 10.7314C15.9949 10.7911 16.1058 10.8252 16.2167 10.8252C16.3105 10.8252 16.4043 10.7997 16.4896 10.757L18.9797 9.51193C19.3464 9.32432 19.5682 8.95762 19.5682 8.5568V6.20309C19.5682 5.98989 19.4573 5.79374 19.2782 5.68288Z" fill="#C4C4C4"/>
</svg>
