<svg width="23" height="23" viewBox="0 0 23 23" fill="none" xmlns="http://www.w3.org/2000/svg">
<path d="M12.7414 2.82313L14.4568 5.92776C14.6918 6.35392 15.2873 6.75565 15.7793 6.80653L18.7077 7.14707C20.5828 7.3611 21.0557 8.67636 19.7667 10.0688L17.5708 12.4279C17.2042 12.8233 17.0093 13.5733 17.151 14.0857L17.8903 16.8354C18.4718 19.0064 17.3237 19.9178 15.3283 18.8657L12.5408 17.3957C12.0332 17.1269 11.2228 17.1734 10.7412 17.4839L8.06138 19.2148C6.14301 20.452 4.93558 19.6581 5.37288 17.4391L5.93257 14.6309C6.03706 14.1059 5.80322 13.3766 5.41013 13.0201L3.06457 10.8843C1.6882 9.62608 2.07267 8.26963 3.92418 7.87055L6.81517 7.2495C7.30311 7.14066 7.87124 6.69379 8.07319 6.24224L9.57912 2.97414C10.3891 1.20992 11.8154 1.14283 12.7414 2.82313Z" fill="#FFA600"/>
</svg>
