<svg width="23" height="23" viewBox="0 0 23 23" fill="none" xmlns="http://www.w3.org/2000/svg">
<path d="M12.7414 2.3855L14.4568 5.49012C14.6918 5.91628 15.2873 6.31801 15.7793 6.36889L18.7077 6.70943C20.5828 6.92346 21.0557 8.23872 19.7667 9.6312L17.5708 11.9903C17.2042 12.3856 17.0093 13.1356 17.151 13.6481L17.8903 16.3978C18.4718 18.5688 17.3237 19.4802 15.3283 18.4281L12.5408 16.958C12.0332 16.6893 11.2228 16.7358 10.7412 17.0463L8.06138 18.7771C6.14301 20.0144 4.93558 19.2204 5.37288 17.0015L5.93257 14.1932C6.03706 13.6683 5.80322 12.9389 5.41013 12.5824L3.06457 10.4467C1.6882 9.18845 2.07267 7.83199 3.92418 7.43291L6.81517 6.81186C7.30311 6.70303 7.87124 6.25615 8.07319 5.80461L9.57912 2.5365C10.3891 0.772286 11.8154 0.705188 12.7414 2.3855Z" fill="#C4C4C4"/>
</svg>
