<svg width="22" height="22" viewBox="0 0 22 22" fill="none" xmlns="http://www.w3.org/2000/svg">
<path d="M13.5986 20.0099C13.3683 20.0099 13.1551 19.882 13.0443 19.6858C12.9334 19.4897 12.9334 19.2424 13.0528 19.0462L13.9482 17.5538C14.1273 17.2468 14.5196 17.153 14.8266 17.3321C15.1336 17.5112 15.2274 17.9035 15.0483 18.2105L14.8181 18.5942C17.1718 18.0399 18.9371 15.925 18.9371 13.4007C18.9371 13.0511 19.227 12.7611 19.5767 12.7611C19.9263 12.7611 20.2163 13.0511 20.2163 13.4007C20.2078 17.0421 17.24 20.0099 13.5986 20.0099Z" fill="#C4C4C4"/>
<path d="M2.51222 8.92351C2.16257 8.92351 1.87262 8.63356 1.87262 8.28391C1.87262 4.64247 4.84035 1.67474 8.48179 1.67474C8.71204 1.67474 8.92524 1.80266 9.03611 1.99881C9.14697 2.19495 9.14697 2.44226 9.02758 2.6384L8.13214 4.13932C7.95306 4.4378 7.56077 4.54014 7.25376 4.35252C6.95528 4.17344 6.85295 3.78115 7.04056 3.47414L7.27082 3.09039C4.90857 3.6447 3.15181 5.75964 3.15181 8.28391C3.15181 8.63356 2.86186 8.92351 2.51222 8.92351Z" fill="#C4C4C4"/>
<path d="M9.90575 12.42L7.22797 10.9788C6.94654 10.8253 6.60542 10.8253 6.324 10.9788L3.64622 12.42C3.45008 12.5223 3.33069 12.7355 3.33069 12.9658C3.33069 13.196 3.45008 13.4092 3.64622 13.5116L6.324 14.9528C6.46898 15.0296 6.62248 15.0637 6.77598 15.0637C6.92949 15.0637 7.08299 15.0296 7.22797 14.9528L9.90575 13.5116C10.1019 13.4092 10.2213 13.196 10.2213 12.9658C10.2213 12.7355 10.0934 12.5309 9.90575 12.42Z" fill="#C4C4C4"/>
<path d="M5.88075 15.4559L3.39059 14.2109C3.20297 14.117 2.98124 14.1256 2.79363 14.2364C2.62307 14.3473 2.51221 14.5434 2.51221 14.7566V17.1104C2.51221 17.5197 2.73393 17.8864 3.10064 18.0655L5.5908 19.3106C5.67608 19.3447 5.76989 19.3703 5.8637 19.3703C5.97456 19.3703 6.08542 19.3362 6.18776 19.2765C6.36685 19.1656 6.47771 18.9695 6.47771 18.7563V16.4025C6.47771 16.0017 6.24745 15.635 5.88075 15.4559Z" fill="#C4C4C4"/>
<path d="M10.7501 14.2364C10.571 14.1256 10.3493 14.117 10.1532 14.2109L7.66301 15.4559C7.29631 15.635 7.07458 16.0017 7.07458 16.4111V18.7648C7.07458 18.978 7.18545 19.1741 7.36454 19.285C7.46687 19.3362 7.57773 19.3703 7.6886 19.3703C7.78241 19.3703 7.87621 19.3447 7.96149 19.302L10.4517 18.057C10.8184 17.8779 11.0401 17.5112 11.0401 17.1018V14.7481C11.0401 14.5434 10.9292 14.3473 10.7501 14.2364Z" fill="#C4C4C4"/>
<path d="M18.4339 3.87496L15.7561 2.43373C15.4747 2.28023 15.1336 2.28023 14.8521 2.43373L12.1744 3.87496C11.9782 3.97729 11.8588 4.19049 11.8588 4.42075C11.8588 4.651 11.9782 4.8642 12.1744 4.96653L14.8521 6.40776C14.9971 6.48451 15.1506 6.51862 15.3041 6.51862C15.4576 6.51862 15.6111 6.48451 15.7561 6.40776L18.4339 4.96653C18.63 4.8642 18.7494 4.651 18.7494 4.42075C18.7494 4.18196 18.6215 3.97729 18.4339 3.87496Z" fill="#C4C4C4"/>
<path d="M14.4086 6.90238L11.9185 5.6573C11.7309 5.56349 11.5091 5.57202 11.3215 5.68288C11.151 5.79374 11.0401 5.98989 11.0401 6.20309V8.5568C11.0401 8.96614 11.2618 9.33285 11.6285 9.51193L14.1187 10.757C14.204 10.7997 14.2978 10.8252 14.3916 10.8252C14.5025 10.8252 14.6133 10.7911 14.7157 10.7314C14.8947 10.6206 15.0056 10.4244 15.0056 10.2112V7.85751C15.0056 7.44817 14.7753 7.08147 14.4086 6.90238Z" fill="#C4C4C4"/>
<path d="M19.278 5.68288C19.0989 5.57202 18.8772 5.56349 18.6811 5.6573L16.1909 6.90238C15.8242 7.08147 15.6025 7.44817 15.6025 7.85751V10.2112C15.6025 10.4244 15.7133 10.6206 15.8924 10.7314C15.9948 10.7911 16.1056 10.8252 16.2165 10.8252C16.3103 10.8252 16.4041 10.7997 16.4894 10.757L18.9795 9.51193C19.3463 9.32432 19.568 8.95762 19.568 8.5568V6.20309C19.568 5.98989 19.4571 5.79374 19.278 5.68288Z" fill="#C4C4C4"/>
</svg>
