<svg width="23" height="23" viewBox="0 0 23 23" fill="none" xmlns="http://www.w3.org/2000/svg">
<path d="M12.7414 2.81859L14.4568 5.92321C14.6918 6.34937 15.2873 6.7511 15.7793 6.80198L18.7077 7.14252C20.5828 7.35655 21.0557 8.67181 19.7667 10.0643L17.5708 12.4234C17.2042 12.8187 17.0093 13.5687 17.151 14.0812L17.8903 16.8309C18.4718 19.0019 17.3237 19.9133 15.3283 18.8612L12.5408 17.3911C12.0332 17.1224 11.2228 17.1689 10.7412 17.4794L8.06138 19.2102C6.14301 20.4474 4.93558 19.6535 5.37288 17.4346L5.93257 14.6263C6.03706 14.1014 5.80322 13.372 5.41013 13.0155L3.06457 10.8798C1.6882 9.62154 2.07267 8.26508 3.92418 7.86601L6.81517 7.24495C7.30311 7.13612 7.87124 6.68924 8.07319 6.2377L9.57912 2.96959C10.3891 1.20538 11.8154 1.13828 12.7414 2.81859Z" fill="#C4C4C4"/>
</svg>
