<svg width="22" height="21" viewBox="0 0 22 21" fill="none" xmlns="http://www.w3.org/2000/svg">
<path d="M8.48181 2.15344C6.24749 2.15344 4.43103 3.9699 4.43103 6.20422C4.43103 8.39591 6.14515 10.1697 8.37948 10.2465C8.4477 10.2379 8.51592 10.2379 8.56709 10.2465C8.58415 10.2465 8.59267 10.2465 8.60973 10.2465C8.61826 10.2465 8.61826 10.2465 8.62679 10.2465C10.8099 10.1697 12.5241 8.39591 12.5326 6.20422C12.5326 3.9699 10.7161 2.15344 8.48181 2.15344Z" fill="#C4C4C4"/>
<path d="M12.8139 12.5149C10.4346 10.9287 6.55439 10.9287 4.15804 12.5149C3.07498 13.2398 2.47803 14.2205 2.47803 15.2694C2.47803 16.3184 3.07498 17.2906 4.14951 18.0069C5.34342 18.8085 6.91257 19.2094 8.48171 19.2094C10.0509 19.2094 11.62 18.8085 12.8139 18.0069C13.8884 17.282 14.4854 16.3099 14.4854 15.2524C14.4769 14.2034 13.8884 13.2313 12.8139 12.5149Z" fill="#C4C4C4"/>
<path d="M17.8539 6.70741C17.9904 8.36183 16.8135 9.81159 15.1847 10.0077C15.1761 10.0077 15.1761 10.0077 15.1676 10.0077H15.142C15.0909 10.0077 15.0397 10.0077 14.9971 10.0248C14.1698 10.0674 13.4109 9.80306 12.8395 9.31696C13.7179 8.53239 14.221 7.35553 14.1187 6.07634C14.059 5.38557 13.8202 4.75451 13.462 4.21724C13.7861 4.05521 14.1613 3.95288 14.5451 3.91877C16.2166 3.77379 17.7089 5.01887 17.8539 6.70741Z" fill="#C4C4C4"/>
<path d="M19.5597 14.5958C19.4914 15.423 18.9627 16.1393 18.0758 16.6254C17.223 17.0944 16.1485 17.3162 15.0825 17.2906C15.6965 16.7363 16.0547 16.0455 16.1229 15.3121C16.2082 14.2546 15.705 13.2398 14.6987 12.4297C14.1274 11.9777 13.4622 11.6195 12.7373 11.3551C14.622 10.8093 16.9928 11.176 18.451 12.3529C19.2356 12.984 19.6364 13.7771 19.5597 14.5958Z" fill="#C4C4C4"/>
</svg>
