<svg width="22" height="22" viewBox="0 0 22 22" fill="none" xmlns="http://www.w3.org/2000/svg">
<path d="M14.4514 4.39395C14.4514 5.45142 13.5901 6.31274 12.5326 6.31274H9.54782C9.01909 6.31274 8.54152 6.09954 8.19187 5.7499C7.84223 5.40025 7.62903 4.92268 7.62903 4.39395C7.62903 3.33648 8.49035 2.47516 9.54782 2.47516H12.5326C13.0613 2.47516 13.5389 2.68836 13.8886 3.038C14.2382 3.38765 14.4514 3.86522 14.4514 4.39395Z" fill="#C4C4C4"/>
<path d="M16.8646 5.05915C16.6685 4.89712 16.4467 4.7692 16.208 4.6754C15.9607 4.58159 15.7133 4.77773 15.6622 5.03357C15.3722 6.49185 14.0845 7.59196 12.5324 7.59196H9.54763C8.69483 7.59196 7.8932 7.25937 7.28772 6.65388C6.84426 6.21043 6.53726 5.64758 6.41787 5.0421C6.3667 4.78626 6.11086 4.58159 5.86355 4.68392C4.8743 5.08474 4.21765 5.9887 4.21765 7.80516V16.1199C4.21765 18.6783 5.74416 19.5311 7.62884 19.5311H14.4512C16.3359 19.5311 17.8624 18.6783 17.8624 16.1199V7.80516C17.8624 6.4151 17.4786 5.5623 16.8646 5.05915ZM7.62884 11.2163H11.04C11.3897 11.2163 11.6796 11.5063 11.6796 11.8559C11.6796 12.2056 11.3897 12.4955 11.04 12.4955H7.62884C7.27919 12.4955 6.98924 12.2056 6.98924 11.8559C6.98924 11.5063 7.27919 11.2163 7.62884 11.2163ZM14.4512 15.9067H7.62884C7.27919 15.9067 6.98924 15.6168 6.98924 15.2671C6.98924 14.9175 7.27919 14.6275 7.62884 14.6275H14.4512C14.8008 14.6275 15.0908 14.9175 15.0908 15.2671C15.0908 15.6168 14.8008 15.9067 14.4512 15.9067Z" fill="#C4C4C4"/>
</svg>
