<svg width="23" height="23" viewBox="0 0 23 23" fill="none" xmlns="http://www.w3.org/2000/svg">
<path d="M12.7414 2.29929L14.4568 5.40391C14.6918 5.83007 15.2873 6.2318 15.7793 6.28268L18.7077 6.62322C20.5828 6.83725 21.0557 8.15251 19.7667 9.54499L17.5708 11.9041C17.2042 12.2994 17.0093 13.0494 17.151 13.5619L17.8903 16.3116C18.4718 18.4826 17.3237 19.394 15.3283 18.3419L12.5408 16.8718C12.0332 16.6031 11.2228 16.6496 10.7412 16.9601L8.06138 18.6909C6.14301 19.9281 4.93558 19.1342 5.37288 16.9153L5.93257 14.107C6.03706 13.5821 5.80322 12.8527 5.41013 12.4962L3.06457 10.3605C1.6882 9.10223 2.07267 7.74578 3.92418 7.3467L6.81517 6.72565C7.30311 6.61681 7.87124 6.16994 8.07319 5.7184L9.57912 2.45029C10.3891 0.686074 11.8154 0.618976 12.7414 2.29929Z" fill="#FFA600"/>
</svg>
