<svg width="23" height="23" viewBox="0 0 23 23" fill="none" xmlns="http://www.w3.org/2000/svg">
<path d="M12.7414 2.34244L14.4568 5.44706C14.6918 5.87322 15.2873 6.27495 15.7793 6.32583L18.7077 6.66637C20.5828 6.8804 21.0557 8.19566 19.7667 9.58814L17.5708 11.9472C17.2042 12.3426 17.0093 13.0926 17.151 13.605L17.8903 16.3548C18.4718 18.5257 17.3237 19.4371 15.3283 18.385L12.5408 16.915C12.0332 16.6462 11.2228 16.6927 10.7412 17.0032L8.06138 18.7341C6.14301 19.9713 4.93558 19.1774 5.37288 16.9584L5.93257 14.1502C6.03706 13.6252 5.80322 12.8959 5.41013 12.5394L3.06457 10.4036C1.6882 9.14539 2.07267 7.78893 3.92418 7.38985L6.81517 6.7688C7.30311 6.65997 7.87124 6.21309 8.07319 5.76155L9.57912 2.49344C10.3891 0.729226 11.8154 0.662127 12.7414 2.34244Z" fill="#FFA600"/>
</svg>
