<svg width="23" height="23" viewBox="0 0 23 23" fill="none" xmlns="http://www.w3.org/2000/svg">
<path d="M12.7414 2.78L14.4568 5.88462C14.6918 6.31078 15.2873 6.71251 15.7793 6.76339L18.7077 7.10393C20.5828 7.31796 21.0557 8.63322 19.7667 10.0257L17.5708 12.3848C17.2042 12.7801 17.0093 13.5301 17.151 14.0426L17.8903 16.7923C18.4718 18.9633 17.3237 19.8747 15.3283 18.8226L12.5408 17.3525C12.0332 17.0838 11.2228 17.1303 10.7412 17.4408L8.06138 19.1716C6.14301 20.4089 4.93558 19.6149 5.37288 17.396L5.93257 14.5877C6.03706 14.0628 5.80322 13.3334 5.41013 12.9769L3.06457 10.8412C1.6882 9.58295 2.07267 8.22649 3.92418 7.82742L6.81517 7.20636C7.30311 7.09753 7.87124 6.65065 8.07319 6.19911L9.57912 2.931C10.3891 1.16679 11.8154 1.09969 12.7414 2.78Z" fill="#FFA600"/>
</svg>
