<svg width="23" height="23" viewBox="0 0 23 23" fill="none" xmlns="http://www.w3.org/2000/svg">
<path d="M12.7414 2.86172L14.4568 5.96635C14.6918 6.39251 15.2873 6.79424 15.7793 6.84512L18.7077 7.18566C20.5828 7.39969 21.0557 8.71495 19.7667 10.1074L17.5708 12.4665C17.2042 12.8618 17.0093 13.6119 17.151 14.1243L17.8903 16.874C18.4718 19.045 17.3237 19.9564 15.3283 18.9043L12.5408 17.4343C12.0332 17.1655 11.2228 17.212 10.7412 17.5225L8.06138 19.2534C6.14301 20.4906 4.93558 19.6967 5.37288 17.4777L5.93257 14.6695C6.03706 14.1445 5.80322 13.4152 5.41013 13.0587L3.06457 10.9229C1.6882 9.66467 2.07267 8.30822 3.92418 7.90914L6.81517 7.28809C7.30311 7.17925 7.87124 6.73238 8.07319 6.28083L9.57912 3.01273C10.3891 1.24851 11.8154 1.18141 12.7414 2.86172Z" fill="#FFA600"/>
</svg>
