<svg width="22" height="22" viewBox="0 0 22 22" fill="none" xmlns="http://www.w3.org/2000/svg">
<path d="M14.6134 2.28369H7.46695C4.36277 2.28369 2.51221 4.13426 2.51221 7.23844V14.3763C2.51221 17.489 4.36277 19.3396 7.46695 19.3396H14.6049C17.709 19.3396 19.5596 17.489 19.5596 14.3849V7.23844C19.5681 4.13426 17.7176 2.28369 14.6134 2.28369ZM7.34756 5.26848C7.34756 4.91883 7.63751 4.62888 7.98716 4.62888C8.3368 4.62888 8.62675 4.91883 8.62675 5.26848V8.59438C8.62675 8.94403 8.3368 9.23398 7.98716 9.23398C7.63751 9.23398 7.34756 8.94403 7.34756 8.59438V5.26848ZM8.98583 14.5638C8.78023 14.6619 8.62675 14.8572 8.62675 15.085V16.3548C8.62675 16.7045 8.3368 16.9944 7.98716 16.9944C7.63751 16.9944 7.34756 16.7045 7.34756 16.3548V15.085C7.34756 14.8572 7.19405 14.6619 6.98854 14.5637C6.20594 14.1894 5.66755 13.3969 5.66755 12.4746C5.66755 11.1954 6.70796 10.1465 7.98716 10.1465C9.26635 10.1465 10.3153 11.1869 10.3153 12.4746C10.3153 13.397 9.77027 14.1896 8.98583 14.5638ZM14.7328 16.3548C14.7328 16.7045 14.4428 16.9944 14.0932 16.9944C13.7435 16.9944 13.4536 16.7045 13.4536 16.3548V13.0289C13.4536 12.6793 13.7435 12.3893 14.0932 12.3893C14.4428 12.3893 14.7328 12.6793 14.7328 13.0289V16.3548ZM14.0932 11.4683C12.814 11.4683 11.765 10.4279 11.765 9.14017C11.765 8.21779 12.3101 7.42517 13.0945 7.05095C13.3001 6.95287 13.4536 6.7576 13.4536 6.52981V5.26848C13.4536 4.91883 13.7435 4.62888 14.0932 4.62888C14.4428 4.62888 14.7328 4.91883 14.7328 5.26848V6.53833C14.7328 6.76613 14.8863 6.96135 15.0918 7.05964C15.8744 7.43391 16.4128 8.22644 16.4128 9.1487C16.4128 10.4279 15.3724 11.4683 14.0932 11.4683Z" fill="#C4C4C4"/>
</svg>
