<svg width="23" height="23" viewBox="0 0 23 23" fill="none" xmlns="http://www.w3.org/2000/svg">
<path d="M12.7414 2.77546L14.4568 5.88008C14.6918 6.30624 15.2873 6.70797 15.7793 6.75885L18.7077 7.09939C20.5828 7.31342 21.0557 8.62868 19.7667 10.0212L17.5708 12.3802C17.2042 12.7756 17.0093 13.5256 17.151 14.0381L17.8903 16.7878C18.4718 18.9588 17.3237 19.8702 15.3283 18.818L12.5408 17.348C12.0332 17.0793 11.2228 17.1257 10.7412 17.4362L8.06138 19.1671C6.14301 20.4043 4.93558 19.6104 5.37288 17.3914L5.93257 14.5832C6.03706 14.0583 5.80322 13.3289 5.41013 12.9724L3.06457 10.8367C1.6882 9.5784 2.07267 8.22195 3.92418 7.82287L6.81517 7.20182C7.30311 7.09298 7.87124 6.64611 8.07319 6.19457L9.57912 2.92646C10.3891 1.16224 11.8154 1.09515 12.7414 2.77546Z" fill="#C4C4C4"/>
</svg>
