<svg width="22" height="21" viewBox="0 0 22 21" fill="none" xmlns="http://www.w3.org/2000/svg">
<path d="M8.48169 2.15344C6.24736 2.15344 4.43091 3.9699 4.43091 6.20422C4.43091 8.39591 6.14503 10.1697 8.37935 10.2465C8.44758 10.2379 8.5158 10.2379 8.56697 10.2465C8.58402 10.2465 8.59255 10.2465 8.60961 10.2465C8.61814 10.2465 8.61814 10.2465 8.62666 10.2465C10.8098 10.1697 12.5239 8.39591 12.5325 6.20422C12.5325 3.9699 10.716 2.15344 8.48169 2.15344Z" fill="#C4C4C4"/>
<path d="M12.8139 12.5149C10.4346 10.9287 6.55439 10.9287 4.15804 12.5149C3.07498 13.2398 2.47803 14.2205 2.47803 15.2694C2.47803 16.3184 3.07498 17.2906 4.14951 18.0069C5.34342 18.8085 6.91257 19.2094 8.48171 19.2094C10.0509 19.2094 11.62 18.8085 12.8139 18.0069C13.8884 17.282 14.4854 16.3099 14.4854 15.2524C14.4769 14.2034 13.8884 13.2313 12.8139 12.5149Z" fill="#C4C4C4"/>
<path d="M17.854 6.70741C17.9905 8.36183 16.8136 9.81159 15.1848 10.0077C15.1763 10.0077 15.1763 10.0077 15.1677 10.0077H15.1421C15.091 10.0077 15.0398 10.0077 14.9972 10.0248C14.17 10.0674 13.411 9.80306 12.8396 9.31696C13.718 8.53239 14.2211 7.35553 14.1188 6.07634C14.0591 5.38557 13.8203 4.75451 13.4621 4.21724C13.7862 4.05521 14.1614 3.95288 14.5452 3.91877C16.2167 3.77379 17.7091 5.01887 17.854 6.70741Z" fill="#C4C4C4"/>
<path d="M19.5596 14.5958C19.4913 15.423 18.9626 16.1393 18.0757 16.6254C17.2229 17.0944 16.1484 17.3162 15.0824 17.2906C15.6964 16.7363 16.0546 16.0455 16.1228 15.3121C16.2081 14.2546 15.7049 13.2398 14.6986 12.4297C14.1272 11.9777 13.4621 11.6195 12.7372 11.3551C14.6219 10.8093 16.9926 11.176 18.4509 12.3529C19.2355 12.984 19.6363 13.7771 19.5596 14.5958Z" fill="#C4C4C4"/>
</svg>
