<svg width="23" height="23" viewBox="0 0 23 23" fill="none" xmlns="http://www.w3.org/2000/svg">
<path d="M12.7414 2.78456L14.4568 5.88919C14.6918 6.31534 15.2873 6.71707 15.7793 6.76795L18.7077 7.1085C20.5828 7.32252 21.0557 8.63778 19.7667 10.0303L17.5708 12.3893C17.2042 12.7847 17.0093 13.5347 17.151 14.0472L17.8903 16.7969C18.4718 18.9679 17.3237 19.8793 15.3283 18.8271L12.5408 17.3571C12.0332 17.0884 11.2228 17.1348 10.7412 17.4453L8.06138 19.1762C6.14301 20.4134 4.93558 19.6195 5.37288 17.4006L5.93257 14.5923C6.03706 14.0674 5.80322 13.338 5.41013 12.9815L3.06457 10.8458C1.6882 9.58751 2.07267 8.23105 3.92418 7.83198L6.81517 7.21092C7.30311 7.10209 7.87124 6.65521 8.07319 6.20367L9.57912 2.93557C10.3891 1.17135 11.8154 1.10425 12.7414 2.78456Z" fill="#FFA600"/>
</svg>
