<svg width="22" height="21" viewBox="0 0 22 21" fill="none" xmlns="http://www.w3.org/2000/svg">
<path d="M18.7067 8.45663C18.4168 8.33724 18.033 8.27754 17.5555 8.27754H13.0527C11.5688 8.27754 11.0401 8.80628 11.0401 10.3072V16.9078C11.0401 17.4025 11.0998 17.7862 11.2277 18.0847C11.4921 18.6987 12.0549 18.9375 13.0527 18.9375H17.5555C19.0393 18.9375 19.5681 18.4002 19.5681 16.9078V10.3072C19.5681 9.29237 19.3293 8.721 18.7067 8.45663ZM16.1569 17.0187H14.4513C14.4342 17.0187 14.4086 17.0187 14.3916 17.0102C14.2637 17.0016 14.1528 16.959 14.059 16.8737C13.9055 16.7629 13.8117 16.5838 13.8117 16.3791C13.8117 16.0295 14.1016 15.7395 14.4513 15.7395H16.1569C16.5065 15.7395 16.7965 16.0295 16.7965 16.3791C16.7965 16.7288 16.5065 17.0187 16.1569 17.0187Z" fill="#C4C4C4"/>
<path d="M18.7068 5.45478V6.14554C18.7068 6.61458 18.3231 6.99834 17.854 6.99834H13.0528C10.8696 6.99834 9.76099 8.1155 9.76099 10.3072V18.0847C9.76099 18.5537 9.37723 18.9375 8.90819 18.9375H7.24524C6.90412 18.9375 6.63123 18.6646 6.63123 18.332C6.63123 17.9909 6.90412 17.7265 7.24524 17.7265H8.90819V14.4603H5.92341C4.0302 14.3665 2.52075 12.8059 2.52075 10.8871V5.45478C2.52075 3.48482 4.12401 1.88156 6.1025 1.88156H15.1336C17.1036 1.88156 18.7068 3.48482 18.7068 5.45478Z" fill="#C4C4C4"/>
</svg>
