<svg width="37" height="36" viewBox="0 0 37 36" fill="none" xmlns="http://www.w3.org/2000/svg">
<circle cx="18.5952" cy="17.741" r="14.6853" fill="#C4C4C4"/>
<path d="M16.8285 19.4199C16.8285 18.6485 17.4174 17.7589 18.5952 16.7513C19.117 16.2947 19.4674 15.9404 19.6463 15.6885C19.8252 15.4208 19.9146 15.1138 19.9146 14.7675C19.9146 14.3424 19.7805 13.996 19.5121 13.7283C19.2437 13.4607 18.9083 13.3268 18.5058 13.3268C17.6858 13.3268 17.0671 13.9251 16.6496 15.1217L14.1896 13.9881C14.5027 12.823 15.0394 11.9335 15.7998 11.3194C16.5751 10.7054 17.5069 10.3984 18.5952 10.3984C19.8476 10.3984 20.8912 10.7841 21.7261 11.5556C22.5759 12.3271 23.0008 13.319 23.0008 14.5313C23.0008 15.1768 22.8592 15.7594 22.5759 16.2789C22.2926 16.7985 21.8155 17.3653 21.1446 17.9793C20.4737 18.5933 20.0414 19.0184 19.8476 19.2546C19.6687 19.4908 19.5792 19.7584 19.5792 20.0576C19.5792 20.1363 19.5941 20.3016 19.6239 20.5535H17.0745C16.9105 20.1599 16.8285 19.7821 16.8285 19.4199ZM16.3365 24.3558C16.3365 23.7418 16.5378 23.2222 16.9403 22.7971C17.3429 22.372 17.8423 22.1595 18.4387 22.1595C19.035 22.1595 19.527 22.372 19.9146 22.7971C20.3172 23.2222 20.5185 23.7418 20.5185 24.3558C20.5185 24.9856 20.3172 25.513 19.9146 25.9381C19.527 26.3475 19.035 26.5522 18.4387 26.5522C17.8423 26.5522 17.3429 26.3475 16.9403 25.9381C16.5378 25.513 16.3365 24.9856 16.3365 24.3558Z" fill="white"/>
</svg>
