<svg width="27" height="32" viewBox="0 0 27 32" fill="none" xmlns="http://www.w3.org/2000/svg">
<path d="M22.5627 16.9913C22.1543 16.9913 21.8121 16.6287 21.7679 16.1495C21.503 13.3005 20.2004 10.7363 18.1914 9.1046C17.8272 8.80674 17.7389 8.22398 17.9928 7.79663C18.2466 7.36927 18.7434 7.26567 19.1076 7.56352C21.503 9.519 23.0484 12.5752 23.3685 15.9552C23.4126 16.4732 23.0925 16.9395 22.651 16.9913C22.6179 16.9913 22.5958 16.9913 22.5627 16.9913Z" fill="white"/>
<path d="M4.21669 17.056C4.19461 17.056 4.16149 17.056 4.13942 17.056C3.69788 17.0042 3.37776 16.538 3.42192 16.02C3.71995 12.64 5.24326 9.58379 7.61653 7.61536C7.96976 7.3175 8.47753 7.42111 8.73142 7.83551C8.9853 8.26287 8.89699 8.84563 8.54376 9.14348C6.55684 10.8011 5.26534 13.3652 5.02249 16.2013C4.97834 16.6934 4.62511 17.056 4.21669 17.056Z" fill="white"/>
<path d="M17.7387 27.8306C16.381 28.5946 14.9239 28.9831 13.4006 28.9831C11.811 28.9831 10.2988 28.5687 8.88585 27.727C8.48847 27.5068 8.33393 26.937 8.53262 26.4708C8.72028 26.0046 9.20597 25.8233 9.60335 26.0435C10.2988 26.4579 11.0384 26.7428 11.789 26.9111C12.8045 27.1442 13.8421 27.1572 14.8577 26.95C15.6083 26.7946 16.3479 26.5226 17.0322 26.1341C17.4407 25.914 17.9264 26.0953 18.103 26.5744C18.3017 27.0406 18.1471 27.6104 17.7387 27.8306Z" fill="white"/>
<path d="M13.3897 3.1087C11.6787 3.1087 10.2769 4.74043 10.2769 6.76066C10.2769 8.78088 11.6677 10.4126 13.3897 10.4126C15.1117 10.4126 16.5025 8.78088 16.5025 6.76066C16.5025 4.74043 15.1117 3.1087 13.3897 3.1087Z" fill="white"/>
<path d="M5.66277 18.4676C3.95181 18.4676 2.54993 20.0993 2.54993 22.1195C2.54993 24.1398 3.94077 25.7715 5.66277 25.7715C7.38477 25.7715 8.77562 24.1398 8.77562 22.1195C8.77562 20.0993 7.37373 18.4676 5.66277 18.4676Z" fill="white"/>
<path d="M21.0063 18.4676C19.2953 18.4676 17.8934 20.0993 17.8934 22.1195C17.8934 24.1398 19.2843 25.7715 21.0063 25.7715C22.7283 25.7715 24.1191 24.1398 24.1191 22.1195C24.1191 20.0993 22.7283 18.4676 21.0063 18.4676Z" fill="white"/>
</svg>
