<svg width="27" height="32" viewBox="0 0 27 32" fill="none" xmlns="http://www.w3.org/2000/svg">
<path d="M22.5625 16.9913C22.1541 16.9913 21.8119 16.6287 21.7677 16.1495C21.5028 13.3005 20.2003 10.7363 18.1913 9.1046C17.827 8.80674 17.7387 8.22398 17.9926 7.79663C18.2465 7.36927 18.7432 7.26567 19.1075 7.56352C21.5028 9.519 23.0482 12.5752 23.3683 15.9552C23.4125 16.4732 23.0923 16.9395 22.6508 16.9913C22.6177 16.9913 22.5956 16.9913 22.5625 16.9913Z" fill="white"/>
<path d="M4.21662 17.056C4.19455 17.056 4.16143 17.056 4.13936 17.056C3.69782 17.0042 3.3777 16.538 3.42186 16.02C3.71989 12.64 5.2432 9.58379 7.61647 7.61536C7.9697 7.3175 8.47747 7.42111 8.73136 7.83551C8.98524 8.26287 8.89693 8.84563 8.5437 9.14348C6.55678 10.8011 5.26528 13.3652 5.02243 16.2013C4.97828 16.6934 4.62505 17.056 4.21662 17.056Z" fill="white"/>
<path d="M17.7386 27.8306C16.3809 28.5946 14.9238 28.9831 13.4005 28.9831C11.811 28.9831 10.2987 28.5687 8.88579 27.727C8.48841 27.5068 8.33387 26.937 8.53256 26.4708C8.72022 26.0046 9.20591 25.8233 9.60329 26.0435C10.2987 26.4579 11.0383 26.7428 11.7889 26.9111C12.8044 27.1442 13.8421 27.1572 14.8576 26.95C15.6082 26.7946 16.3478 26.5226 17.0322 26.1341C17.4406 25.914 17.9263 26.0953 18.1029 26.5744C18.3016 27.0406 18.1471 27.6104 17.7386 27.8306Z" fill="white"/>
<path d="M13.3896 3.1087C11.6786 3.1087 10.2767 4.74043 10.2767 6.76066C10.2767 8.78088 11.6676 10.4126 13.3896 10.4126C15.1116 10.4126 16.5024 8.78088 16.5024 6.76066C16.5024 4.74043 15.1116 3.1087 13.3896 3.1087Z" fill="white"/>
<path d="M5.66265 18.4676C3.95169 18.4676 2.5498 20.0993 2.5498 22.1195C2.5498 24.1398 3.94065 25.7715 5.66265 25.7715C7.38465 25.7715 8.7755 24.1398 8.7755 22.1195C8.7755 20.0993 7.37361 18.4676 5.66265 18.4676Z" fill="white"/>
<path d="M21.0062 18.4676C19.2952 18.4676 17.8933 20.0993 17.8933 22.1195C17.8933 24.1398 19.2842 25.7715 21.0062 25.7715C22.7282 25.7715 24.119 24.1398 24.119 22.1195C24.119 20.0993 22.7282 18.4676 21.0062 18.4676Z" fill="white"/>
</svg>
