<svg width="26" height="26" viewBox="0 0 26 26" fill="none" xmlns="http://www.w3.org/2000/svg">
<path d="M25.2374 17.7662L23.5779 15.0053C23.2108 14.4032 22.8877 13.2431 22.8877 12.5382V9.79208C22.8877 4.46133 18.5556 0.129181 13.2395 0.129181C7.90876 0.143866 3.57661 4.46133 3.57661 9.79208V12.5235C3.57661 13.2284 3.25353 14.3886 2.90109 14.9907L1.24165 17.7515C0.610189 18.8235 0.463336 20.0424 0.859838 21.0997C1.25634 22.1717 2.15214 23.0235 3.32696 23.4053C4.91297 23.934 6.51366 24.3158 8.14372 24.5948C8.30526 24.6242 8.4668 24.6389 8.62834 24.6682C8.83393 24.6976 9.05421 24.727 9.27449 24.7563C9.6563 24.8151 10.0381 24.8591 10.4346 24.8885C11.3598 24.9766 12.2997 25.0207 13.2395 25.0207C14.1647 25.0207 15.0898 24.9766 16.0003 24.8885C16.3381 24.8591 16.6759 24.8298 16.9989 24.7857C17.2633 24.7563 17.5276 24.727 17.7919 24.6829C17.9535 24.6682 18.115 24.6389 18.2765 24.6095C19.9213 24.3452 21.5514 23.934 23.1374 23.4053C24.2681 23.0235 25.1346 22.1717 25.5457 21.085C25.9569 19.9836 25.8395 18.7795 25.2374 17.7662ZM14.3115 11.804C14.3115 12.4207 13.8122 12.92 13.1954 12.92C12.5787 12.92 12.0794 12.4207 12.0794 11.804V7.25153C12.0794 6.63475 12.5787 6.13545 13.1954 6.13545C13.8122 6.13545 14.3115 6.63475 14.3115 7.25153V11.804Z" fill="#C4C4C4"/>
</svg>
