<svg width="26" height="26" viewBox="0 0 26 26" fill="none" xmlns="http://www.w3.org/2000/svg">
<path d="M25.2378 17.7662L23.5784 15.0053C23.2113 14.4032 22.8882 13.2431 22.8882 12.5382V9.79208C22.8882 4.46133 18.5561 0.129181 13.24 0.129181C7.90925 0.143866 3.5771 4.46133 3.5771 9.79208V12.5235C3.5771 13.2284 3.25402 14.3886 2.90158 14.9907L1.24214 17.7515C0.610677 18.8235 0.463825 20.0424 0.860326 21.0997C1.25683 22.1717 2.15263 23.0235 3.32745 23.4053C4.91346 23.934 6.51415 24.3158 8.14421 24.5948C8.30575 24.6242 8.46729 24.6389 8.62882 24.6682C8.83442 24.6976 9.0547 24.727 9.27498 24.7563C9.65679 24.8151 10.0386 24.8591 10.4351 24.8885C11.3603 24.9766 12.3001 25.0207 13.24 25.0207C14.1652 25.0207 15.0903 24.9766 16.0008 24.8885C16.3386 24.8591 16.6763 24.8298 16.9994 24.7857C17.2638 24.7563 17.5281 24.727 17.7924 24.6829C17.954 24.6682 18.1155 24.6389 18.277 24.6095C19.9218 24.3452 21.5518 23.934 23.1379 23.4053C24.2686 23.0235 25.135 22.1717 25.5462 21.085C25.9574 19.9836 25.8399 18.7795 25.2378 17.7662ZM14.312 11.804C14.312 12.4207 13.8127 12.92 13.1959 12.92C12.5792 12.92 12.0799 12.4207 12.0799 11.804V7.25153C12.0799 6.63475 12.5792 6.13545 13.1959 6.13545C13.8127 6.13545 14.312 6.63475 14.312 7.25153V11.804Z" fill="#C4C4C4"/>
</svg>
